<?xml version="1.0" encoding="utf-8"?>
<!-- Generator: Adobe Illustrator 27.7.0, SVG Export Plug-In . SVG Version: 6.00 Build 0)  -->
<svg version="1.1" id="Layer_1" xmlns="http://www.w3.org/2000/svg" xmlns:xlink="http://www.w3.org/1999/xlink" x="0px" y="0px"
	 viewBox="0 0 1024 1024" style="enable-background:new 0 0 1024 1024;" xml:space="preserve">
<style type="text/css">
	.st0{fill:#1C1C26;}
	.st1{fill:#00D200;}
	.st2{fill:#2676F9;}
</style>
<g id="a">
</g>
<circle class="st0" cx="512" cy="512" r="510.2"/>
<g id="b">
	<g id="c">
		<g>
			<path class="st1" d="M522,900.4c5.5,0,11-1.9,16-4.7c189.9-108.5,298.3-294.5,313.1-596.2c0.5-9.3-3.3-18.6-9.4-25.4
				c-6-6.8-14.6-11-23.5-11.3c-69.1-1.8-155.6-75.4-213.5-104.4c-35.7-17.9-59.4-29.8-77.1-32.9c-1.8-0.2-3.8,0-5.7,0V278
				c113.6,0,205.8,92.2,205.8,205.8S635.5,689.7,522,689.7V900.4L522,900.4z"/>
			<path class="st2" d="M492.6,320.1c-8.2,0.7-17.4,3.2-22.1,4.4c-14.7,4-27.5,13.7-39.9,22.1c-13.9,9.4-33.4,17-42,32.1
				c-3.6,6.4-2.2,10.6,0,14.4c2.5,4.3,5,8.6,0,14.4c-4.8,5.7-12.7,6.2-11.1,15.5c2.7,15.1,27.9,11.2,37.6,17.7
				c5.8,3.8,11.1,10.1,6.7,17.7c-4.8,8.2-14.8,5-22.1,6.7c-7.7,1.8-10.8,3.4-16.6,8.9c-12.5,11.6-20.7,25.6-19.9,43.2
				c0.8,19.2,13.5,41.5,29.9,52c8.2,5.3,9.8,5.7,15.5,15.5c16.2,27.4,50.1,64.9,85.2,63.1c6.8-0.5-15.8-76.8-16.6-83
				c-4.8-33.4,37.6-68.6,18.8-101.9c-8.2-14.4-21-1.8-34.4-1.1c-6,0.3-22.7-5.4-24.3-12.2c-3.3-13.2,17.7-32.2,29.9-25.5
				c10.1,5.7,4.3,23.3,17.7,14.4c18.3-12,19.2-38.6,24.3-57.5c3.8-14.2,18.7-45.7,3.3-57.5C508.5,320.3,500.7,319.4,492.6,320.1
				L492.6,320.1z"/>
			<path class="st2" d="M597.7,333.4c-2.2-0.2-3.4,2.1-6.7,6.7c-7.9,11.3-10.1,29.1-14.4,42c-5.1,15.8-10.4,37.3,3.3,49.8
				c18.7,17.1,38.3-1.9,58.7,5.5c25.5,9.3-9.8,25.5-19.9,32.1c-12.7,8.3-29.9,24-23.3,40.9c2.7,6.8,11.3,10.4,16.6,14.4
				c8.3,6.4,10.6,11.1,13.2,21c3.7,14.4,3.6,32.4-2.2,46.5c-6,14.7-20.4,23.5-27.7,36.5c14.4,2.2,54.7-20,76.4-79.7
				c10.9-21.7,17.9-83.3-4.4-137.2c-2.5-4.7-5.8-9.4-8.9-14.4c-8-13.5-17.5-27.4-27.7-37.6c-7.3-7.5-14.9-13.7-23.3-19.9
				C602.9,336.6,600,333.5,597.7,333.4L597.7,333.4z"/>
		</g>
		<path class="st1" d="M524,900.3c-3.7,0-11.5-1.1-16.9-4.4c-98-55.9-170.7-129.9-222.5-226c-54-100.1-83.9-221.7-91.2-371.6
			c-0.5-8.2,2.8-16.7,8.7-23.3c5.4-6.1,13.4-9.9,21.3-10.2c49.4-1.2,106.5-37.7,157-69.9c21.6-13.8,41.9-26.8,59.4-35.5l1.4-0.7
			c4.4-2.2,8.7-4.4,12.8-6.5c27.4-13.9,47.3-24,62.2-26.7l1.6-0.2c0.7,0,1.4,0,2.1,0c0.9,0,1.6,0.1,2.2,0.1v22.4
			c-0.9,0-1.8,0-2.8-0.1l0,0c-11.9,2.6-31.1,12.2-55.1,24.4c-4.1,2.1-8.4,4.3-12.9,6.5l-1.5,0.7c-16.5,8.3-36.3,20.9-57.3,34.4
			c-53,33.8-112.9,72.1-168.5,73.5c-1.7,0-3.7,1.1-5.1,2.7c-2.1,2.3-3.3,5.1-3.1,7.3c7.2,146.5,36.1,265,88.5,362.2
			c49.7,92.3,119.7,163.3,213.9,217.2c1.1,0.6,4.5,1.4,5.9,1.4L524,900.3L524,900.3z"/>
		<path class="st1" d="M524,707.4c-123.4,0-223.6-100.3-223.6-223.5S400.8,260.4,524,260.4s223.6,100.2,223.6,223.5
			S647.3,707.4,524,707.4z M524,278c-113.5,0-205.8,92.3-205.8,205.8S410.5,689.7,524,689.7s205.8-92.3,205.8-205.8
			S637.5,278,524,278z"/>
	</g>
</g>
<image style="display:none;overflow:visible;" width="1920" height="1080" xlink:href="../../Downloads/Screenshot from 2023-07-21 14-26-45.png"  transform="matrix(1 0 0 1 1637.2914 -101.5748)">
</image>
</svg>
