<svg xmlns="http://www.w3.org/2000/svg" width="21.072" height="21.072" viewBox="0 0 21.072 21.072">
  <path id="Close" d="M14.536,4A10.536,10.536,0,1,0,25.072,14.536,10.548,10.548,0,0,0,14.536,4Zm0,1.58A8.955,8.955,0,1,1,5.58,14.536,8.943,8.943,0,0,1,14.536,5.58Zm3.417,4.73a.79.79,0,0,0-.551.243l-2.865,2.865L11.67,10.553a.79.79,0,1,0-1.117,1.117l2.865,2.865L10.553,17.4a.79.79,0,1,0,1.117,1.117l2.865-2.866L17.4,18.519A.79.79,0,1,0,18.519,17.4l-2.866-2.865,2.865-2.865a.79.79,0,0,0-.566-1.36Z" transform="translate(-4 -4)" fill="#fff"/>
</svg>
