<?xml version="1.0" encoding="UTF-8"?><svg xmlns="http://www.w3.org/2000/svg" viewBox="0 0 844.02 151.35"><defs><style>.d{fill:#0095e1;}.e{stroke-width:.32px;}.e,.f{fill:#00dc00;}.e,.f,.g{stroke:#00dc00;}.f{stroke-width:.32px;}.h{stroke:#0095e1;}.h,.g{fill:none;stroke-width:6.48px;}</style></defs><g id="a"/><g id="b"><g id="c"><g><path class="g" d="M6.37,3.24H121.85s7.84,39.79,2.1,74.03c-5.34,31.87-22.81,57.84-59.84,70.76,0,0-47.42-6.91-59.31-74.96C1.72,55.41,3.72,29.27,6.37,3.24Z"/><path class="h" d="M23.38,19.66H104.33s18.57,85.07-39.95,108.27c0,0-52.85-11.34-40.99-108.27Z"/><path class="f" d="M82.05,54.13c0-9.76-7.97-17.66-17.81-17.66s-17.81,7.91-17.81,17.66c0,5.88,2.91,11.08,7.37,14.29v25.87h19.59v-25.03c5.18-3.09,8.66-8.7,8.66-15.13Z"/></g><g><path class="e" d="M214.28,97.67v17.56h-24.28V32.98c0-2.36,1.14-3.54,3.42-3.54h70.47c8.01,0,13.79,1.79,17.32,5.36,3.53,3.58,5.3,8.62,5.3,15.14v7.54c0,3.46-.71,6.25-2.12,8.37-1.41,2.12-3.02,3.81-4.83,5.07,2.51,1.26,4.6,3.1,6.24,5.54,1.65,2.44,2.47,5.46,2.47,9.07v7.54c0,7.23-1.71,12.73-5.13,16.5-3.42,3.77-9.29,5.66-17.62,5.66h-43.72l-6.72-17.56h-.82Zm2-49.14c-1.34,0-2,.67-2,2v14.49h40.77c2.67,0,4.56-.51,5.66-1.53s1.65-2.79,1.65-5.3v-2.59c0-2.59-.55-4.42-1.65-5.48s-2.99-1.59-5.66-1.59h-38.77Zm-2,30.4v16.14h42.19c2.12,0,3.67-.51,4.65-1.53,.98-1.02,1.47-2.79,1.47-5.3v-2.47c0-2.51-.45-4.28-1.36-5.3-.9-1.02-2.5-1.53-4.77-1.53h-42.19Z"/><path class="e" d="M321.99,65.62h-.82v25.69c0,1.1,.55,1.65,1.65,1.65h72.36v22.27h-94.86c-2.28,0-3.42-1.18-3.42-3.53V32.98c0-2.36,1.14-3.54,3.42-3.54h92.15c2.36,0,3.54,1.18,3.54,3.54v22.27l-22.51,8.37h-.94v-11.43c0-.86-.39-1.3-1.18-1.3h-48.67c-.63,0-1.04,.18-1.24,.53s-.29,.73-.29,1.12v10.72h40.07v17.44h-33.59l-5.66-15.08Z"/><path class="e" d="M429.93,29.44v60.57c0,.94,.2,1.65,.59,2.12,.39,.47,1.14,.71,2.24,.71h67.17v22.39h-88.03c-2.28,0-3.89-.57-4.83-1.71-.94-1.14-1.42-2.77-1.42-4.89V29.44h24.28Z"/><path class="d" d="M546.48,29.44c1.81,0,3.08,.28,3.83,.82,.75,.55,1.43,1.41,2.06,2.59l32.52,61.63c.55,.94,1.3,1.41,2.24,1.41h1.3c1.26,0,1.89-.63,1.89-1.89V29.44h22.04V111.81c0,2.28-1.1,3.42-3.3,3.42h-34.88c-1.65,0-2.89-.24-3.71-.71-.82-.47-1.59-1.37-2.3-2.71l-33.7-61.51c-.47-.94-1.22-1.41-2.24-1.41h-1.18c-1.26,0-1.88,.63-1.88,1.89V115.23h-22.04V32.98c0-2.36,1.1-3.54,3.3-3.54h36.06Z"/><path class="d" d="M648.29,65.62h-.82v25.69c0,1.1,.55,1.65,1.65,1.65h72.36v22.27h-94.86c-2.28,0-3.42-1.18-3.42-3.53V32.98c0-2.36,1.14-3.54,3.42-3.54h92.15c2.36,0,3.54,1.18,3.54,3.54v22.27l-22.51,8.37h-.94v-11.43c0-.86-.39-1.3-1.18-1.3h-48.67c-.63,0-1.04,.18-1.24,.53s-.29,.73-.29,1.12v10.72h40.07v17.44h-33.59l-5.66-15.08Z"/><path class="d" d="M794.65,50.89V115.23h-24.27V50.89h-35.59l-7.89-20.5v-.94h113.72c2.28,0,3.42,1.18,3.42,3.54v22.27l-22.51,8.37h-.94v-11.43c0-.86-.43-1.3-1.3-1.3h-24.63Z"/></g></g></g></svg>