<svg xmlns="http://www.w3.org/2000/svg" xmlns:xlink="http://www.w3.org/1999/xlink" width="213" height="37.117" viewBox="0 0 213 37.117">
  <defs>
    <clipPath id="clip-path">
      <rect id="Rectangle_6" data-name="Rectangle 6" width="31.504" height="37.117" fill="none"/>
    </clipPath>
  </defs>
  <g id="belnet_logo" transform="translate(-69.017 -113.428)">
    <g id="Group_220" data-name="Group 220" transform="translate(69.017 113.428)">
      <g id="Group_219" data-name="Group 219" clip-path="url(#clip-path)">
        <path id="Path_10" data-name="Path 10" d="M91.909,37.127a1.569,1.569,0,0,0,.766-.225c9.092-5.2,14.288-14.108,15-28.553a1.727,1.727,0,0,0-.45-1.216,1.572,1.572,0,0,0-1.126-.54c-3.31-.084-7.453-3.609-10.223-5A16.481,16.481,0,0,0,92.179.018a2.156,2.156,0,0,0-.27,0v7.3a9.858,9.858,0,0,1,0,19.717Z" transform="translate(-76.17 -0.01)" fill="#00d200"/>
        <path id="Path_11" data-name="Path 11" d="M53.666,54.4a6.592,6.592,0,0,0-1.06.212,6.664,6.664,0,0,0-1.908,1.06c-.663.451-1.6.815-2.014,1.537a.612.612,0,0,0,0,.689c.119.205.238.411,0,.689s-.61.3-.53.742c.126.722,1.332.537,1.8.848.278.186.53.484.318.848-.232.391-.709.239-1.06.318a1.442,1.442,0,0,0-.8.424,2.59,2.59,0,0,0-.954,2.067,3.392,3.392,0,0,0,1.431,2.491,1.577,1.577,0,0,1,.742.742c.775,1.312,2.4,3.108,4.082,3.021.325-.02-.755-3.677-.8-3.976-.232-1.6,1.8-3.287.9-4.877-.391-.689-1.007-.086-1.643-.053-.291.013-1.087-.258-1.166-.583-.159-.636.848-1.544,1.431-1.219.484.272.205,1.113.848.689.875-.576.921-1.849,1.166-2.756.185-.676.894-2.186.159-2.756a1.507,1.507,0,0,0-.954-.159" transform="translate(-39.333 -45.076)" fill="#2676f9"/>
        <path id="Path_12" data-name="Path 12" d="M106.97,58.163c-.106-.007-.166.1-.318.318a8.034,8.034,0,0,0-.689,2.014c-.245.755-.5,1.789.159,2.385.895.822,1.835-.093,2.809.265,1.219.444-.47,1.219-.954,1.537-.609.4-1.431,1.153-1.113,1.961.126.325.543.5.8.689a1.531,1.531,0,0,1,.636,1.007,3.706,3.706,0,0,1-.106,2.226c-.291.7-.974,1.126-1.325,1.749.689.106,2.619-.957,3.658-3.816a9.357,9.357,0,0,0-.212-6.573c-.119-.225-.278-.451-.424-.689a8.136,8.136,0,0,0-2.438-2.756c-.225-.166-.371-.311-.477-.318" transform="translate(-87.602 -48.202)" fill="#2676f9"/>
        <path id="Path_13" data-name="Path 13" d="M15.837,37.114a1.89,1.89,0,0,1-.812-.207A26.852,26.852,0,0,1,4.369,26.086C1.783,21.288.354,15.465,0,8.284A1.583,1.583,0,0,1,.421,7.166a1.438,1.438,0,0,1,1.019-.488c2.365-.06,5.1-1.808,7.516-3.35,1.032-.659,2-1.28,2.843-1.7l.067-.034.614-.31A13.385,13.385,0,0,1,15.461.008L15.535,0c.033,0,.066,0,.1,0l.1,0V1.077c-.043,0-.09,0-.137,0h0a14.518,14.518,0,0,0-2.639,1.168l-.617.311-.068.034c-.789.394-1.738,1-2.743,1.643C7,5.848,4.13,7.681,1.467,7.749a.364.364,0,0,0-.244.128.534.534,0,0,0-.15.353C1.418,15.25,2.8,20.924,5.313,25.577a25.811,25.811,0,0,0,10.244,10.4.936.936,0,0,0,.281.065Z" transform="translate(0 0.001)" fill="#00d200"/>
        <path id="Path_14" data-name="Path 14" d="M40.668,59.139A10.707,10.707,0,1,1,51.374,48.432,10.719,10.719,0,0,1,40.668,59.139m0-20.563a9.857,9.857,0,1,0,9.857,9.857,9.868,9.868,0,0,0-9.857-9.857" transform="translate(-24.83 -31.265)" fill="#00d200"/>
      </g>
    </g>
    <path id="BELNET" d="M8.229-12.878v4.554h-6.3V-29.659a.8.8,0,0,1,.886-.917H21.1q3.118,0,4.493,1.391a5.346,5.346,0,0,1,1.376,3.928V-23.3a3.85,3.85,0,0,1-.55,2.17,4.849,4.849,0,0,1-1.253,1.314,4.211,4.211,0,0,1,1.62,1.437,4.1,4.1,0,0,1,.642,2.354v1.956A6.17,6.17,0,0,1,26.1-9.791q-1.33,1.467-4.57,1.467H10.185L8.443-12.878Zm0-4.86v4.188H19.172a1.61,1.61,0,0,0,1.207-.4,1.965,1.965,0,0,0,.382-1.376v-.642a2.086,2.086,0,0,0-.352-1.376,1.6,1.6,0,0,0-1.238-.4Zm.52-7.886a.459.459,0,0,0-.52.52v3.76H18.8a2.143,2.143,0,0,0,1.467-.4,1.822,1.822,0,0,0,.428-1.376v-.672a1.927,1.927,0,0,0-.428-1.421,2.087,2.087,0,0,0-1.467-.413Zm27.418,4.432h-.214v6.664a.378.378,0,0,0,.428.428H55.149v5.777H30.543a.8.8,0,0,1-.886-.917V-29.659a.8.8,0,0,1,.886-.917h23.9a.811.811,0,0,1,.917.917v5.777l-5.838,2.17H49.28v-2.965q0-.336-.306-.336H36.35a.335.335,0,0,0-.321.138.589.589,0,0,0-.076.29V-21.8H46.346v4.524H37.634Zm28-9.384v15.711a.844.844,0,0,0,.153.55.733.733,0,0,0,.581.183H82.323v5.808H59.489a1.546,1.546,0,0,1-1.253-.443,1.941,1.941,0,0,1-.367-1.269V-30.576Z" transform="translate(110.455 151.59)" fill="#1dc021"/>
    <path id="BELNET-2" data-name="BELNET" d="M12.141-30.576a1.729,1.729,0,0,1,.993.214,1.969,1.969,0,0,1,.535.672L22.106-13.7a.65.65,0,0,0,.581.367h.336a.432.432,0,0,0,.489-.489V-30.576h5.716V-9.21a.77.77,0,0,1-.856.886H19.324a1.99,1.99,0,0,1-.963-.183,1.69,1.69,0,0,1-.6-.7L9.023-25.166a.609.609,0,0,0-.581-.367H8.137a.432.432,0,0,0-.489.489v16.72H1.932V-29.659q0-.917.856-.917Zm26.41,9.384h-.214v6.664a.378.378,0,0,0,.428.428H57.533v5.777H32.927a.8.8,0,0,1-.886-.917V-29.659a.8.8,0,0,1,.886-.917h23.9a.811.811,0,0,1,.917.917v5.777l-5.838,2.17h-.245v-2.965q0-.336-.306-.336H38.734a.335.335,0,0,0-.321.138.589.589,0,0,0-.076.29V-21.8H48.73v4.524H40.018Zm37.964-3.821V-8.323h-6.3V-25.013H60.987l-2.048-5.319v-.245h29.5a.8.8,0,0,1,.886.917v5.777l-5.838,2.17H83.24v-2.965a.3.3,0,0,0-.336-.336Z" transform="translate(192.694 151.59)" fill="#0094ff"/>
  </g>
</svg>
